<svg xmlns="http://www.w3.org/2000/svg" viewBox="0 0 25 25">
  <defs>
    <style>
      .cls-1 {
        fill: #fff;
      }
    </style>
  </defs>
  <path id="lightbulb-on" class="cls-1" d="M13.5,6.682a6.821,6.821,0,0,1,3.409,12.727v2.045a1.136,1.136,0,0,1-1.136,1.136H11.227a1.136,1.136,0,0,1-1.136-1.136V19.409A6.821,6.821,0,0,1,13.5,6.682m2.273,17.045v1.136A1.136,1.136,0,0,1,14.636,26H12.364a1.136,1.136,0,0,1-1.136-1.136V23.727h4.545m6.818-11.364H26v2.273H22.591V12.364M1,12.364H4.409v2.273H1V12.364M14.636,1V4.409H12.364V1h2.273M5.455,3.841l2.42,2.432-1.614,1.6L3.841,5.466,5.455,3.841m13.67,2.42,2.409-2.42,1.625,1.625-2.42,2.409Z" transform="translate(-1 -1)"/>
</svg>
