<svg xmlns="http://www.w3.org/2000/svg" viewBox="0 0 24.319 27.546">
  <defs>
    <style>
      .cls-1, .cls-2 {
        fill: none;
      }

      .cls-1 {
        stroke-linecap: round;
        stroke-linejoin: round;
      }

      .cls-2 {
        stroke: #707070;
        stroke-width: 4px;
      }

      .cls-3, .cls-4 {
        stroke: none;
      }

      .cls-4 {
        fill: #707070;
      }
    </style>
  </defs>
  <g id="Group_132" data-name="Group 132" transform="translate(-745 -1106.773)">
    <g id="Subtraction_2" data-name="Subtraction 2" class="cls-1" transform="translate(745 1105)">
      <path class="cls-3" d="M12.159,29.319A12.163,12.163,0,0,1,9,5.413V9.584a8,8,0,1,0,7.106.553V5.652a12.165,12.165,0,0,1,4.651,20.1A12.081,12.081,0,0,1,12.159,29.319Z"/>
      <path class="cls-4" d="M 12.15900039672852 29.31931114196777 C 8.911820411682129 29.31931114196777 5.8584303855896 28.05423164367676 3.56130051612854 25.75711059570313 C 1.264760494232178 23.46056175231934 5.310058668328566e-07 20.40717124938965 5.310058668328566e-07 17.1594123840332 C 5.310058668328566e-07 13.91074180603027 1.264760494232178 10.85734176635742 3.56130051612854 8.561701774597168 C 5.075400352478027 7.047601699829102 6.956070423126221 5.958661556243896 9.000000953674316 5.412591457366943 L 9.000000953674316 9.583541870117188 C 5.962130546569824 10.81665134429932 3.999600648880005 13.72746181488037 3.999600648880005 17.00010108947754 C 3.999600648880005 21.4113712310791 7.588430404663086 25.00020217895508 11.99970054626465 25.00020217895508 C 16.41097068786621 25.00020217895508 19.99979972839355 21.4113712310791 19.99979972839355 17.00010108947754 C 19.99979972839355 14.2089319229126 18.50793075561523 11.57898139953613 16.10640144348145 10.13656139373779 L 16.10640144348145 5.652201652526855 C 17.86390113830566 6.253231525421143 19.42834091186523 7.232451438903809 20.75760078430176 8.561701774597168 C 23.05414009094238 10.85734176635742 24.31890106201172 13.91074180603027 24.31890106201172 17.1594123840332 C 24.31890106201172 20.40717124938965 23.05414009094238 23.46056175231934 20.75760078430176 25.75711059570313 C 18.46047019958496 28.05423164367676 15.40676021575928 29.31931114196777 12.15900039672852 29.31931114196777 Z"/>
    </g>
    <line id="Line_17" data-name="Line 17" class="cls-2" y2="14.693" transform="translate(757.5 1106.773)"/>
  </g>
</svg>
